<?xml version="1.0" encoding="UTF-8"?>
<svg id="Layer_1" data-name="Layer 1" xmlns="http://www.w3.org/2000/svg" viewBox="0 0 1366 768">
  <path d="m57.39,446.44c-5.68-5.78-8.52-14.98-8.52-27.46v-8.8c7.21-.8,14.43-1.58,21.64-2.35,0,3.45,0,6.89,0,10.34,0,9.78,3.94,14.13,11.84,13.1,3.88-.5,6.83-2.04,8.85-4.61,2.01-2.57,3.03-6.44,3.04-11.63.01-6.17-1.37-11.45-4.14-15.9-2.77-4.45-7.9-9.65-15.39-15.75-9.44-7.8-16.03-15.23-19.78-22.07-3.75-6.84-5.63-14.79-5.63-23.73,0-12.17,2.92-21.68,8.77-28.35,5.85-6.67,14.35-9.92,25.49-9.92,11,0,19.32,3.21,24.95,9.44,5.63,6.25,8.42,15.13,8.39,26.8,0,1.99,0,3.98-.01,5.97-7.23.29-14.47.59-21.7.89,0-2.52,0-5.05.01-7.57,0-5.04-.96-8.69-2.9-10.97-1.95-2.27-4.8-3.38-8.55-3.3-7.66.15-11.49,5.03-11.5,14.64,0,5.45,1.42,10.48,4.26,15.05,2.84,4.57,8.02,9.98,15.51,16.1,9.58,7.81,16.16,14.83,19.76,21.29,3.6,6.46,5.38,14.16,5.36,23.22-.03,11.8-3,21.19-8.91,28.35-5.91,7.15-14.48,11.62-25.7,13.31-11.09,1.67-19.46-.28-25.14-6.08Z" fill="#e50914"/>
  <path d="m147.69,301.3c10.38-.02,20.75-.04,31.13-.06,7.75,45.37,15.49,89.77,23.2,133.28-7.64.9-15.29,1.82-22.93,2.77-1.35-8.83-2.7-17.7-4.06-26.6,0,.13,0,.26,0,.39-8.69.87-17.37,1.77-26.05,2.69-1.42,9.27-2.84,18.57-4.26,27.92-7.08.94-14.16,1.89-21.23,2.86,8.03-48.82,16.1-96.55,24.19-143.24Zm24.71,91.48c-3.32-22.27-6.64-44.74-9.96-67.42-.14,0-.28,0-.42,0-3.43,22.85-6.85,45.91-10.26,69.19,6.88-.6,13.76-1.19,20.64-1.77Z" fill="#e50914"/>
  <path d="m213.71,301.19c9.61-.02,19.22-.03,28.83-.05,7.32,25.7,14.62,50.94,21.93,75.73.14,0,.28-.02.42-.03.14-25.25.28-50.49.43-75.74,6.83,0,13.65-.02,20.48-.03-.24,41.51-.48,83.01-.73,124.52-7.87.77-15.73,1.55-23.59,2.36-9.01-29.92-18.03-60.49-27.05-91.78-.14,0-.28,0-.42.01-.16,31.58-.33,63.16-.49,94.74-6.82.75-13.63,1.52-20.44,2.3.21-44.02.43-88.03.64-132.05Z" fill="#e50914"/>
  <path d="m302.93,301.06c11.7-.02,23.4-.03,35.1-.04,11.42-.01,19.97,2.48,25.66,7.37,5.68,4.91,8.49,12.06,8.44,21.53-.12,19.74-.24,39.49-.36,59.23-.06,9.48-2.96,16.85-8.7,22.2-5.75,5.35-14.34,8.52-25.76,9.49-11.7.99-23.41,2.03-35.1,3.11.24-40.97.49-81.94.73-122.91Zm34.06,102.71c3.76-.27,6.66-1.39,8.69-3.35,2.03-1.95,3.06-4.97,3.09-9.04.13-20.61.25-41.22.38-61.84.03-4.08-.97-7-2.98-8.79-2.01-1.78-4.89-2.66-8.65-2.61-3.9.05-7.8.1-11.7.16-.17,28.78-.35,57.56-.52,86.33,3.9-.29,7.8-.58,11.7-.86Z" fill="#e50914"/>
  <path d="m387.76,300.96c7.66,0,15.32-.02,22.98-.02-.09,15.53-.18,31.06-.27,46.59,8.22-.23,16.45-.44,24.67-.65.09-15.32.17-30.64.26-45.96,7.66,0,15.32-.01,22.98-.02-.2,37.19-.39,74.38-.59,111.57-7.68.42-15.35.86-23.02,1.33.09-16.93.19-33.86.28-50.8-8.23.28-16.45.57-24.68.87-.1,17.16-.2,34.33-.3,51.49-7.67.51-15.34,1.04-23.01,1.6.23-38.67.46-77.33.7-116Z" fill="#e50914"/>
  <path d="m475.52,300.88c7.66,0,15.32-.01,22.98-.02-.17,36.53-.34,73.06-.51,109.59-7.68.35-15.36.71-23.03,1.1.19-36.89.37-73.78.56-110.68Z" fill="#e50914"/>
  <path d="m533.54,316.3c-8.01.05-16.03.09-24.04.15.02-5.2.05-10.39.07-15.59,23.68-.01,47.36-.03,71.04-.03-.01,5.08-.03,10.17-.04,15.25-8.01.03-16.03.07-24.04.1-.1,30.69-.21,61.38-.31,92.07-7.68.24-15.36.5-23.04.78.12-30.91.24-61.82.36-92.72Z" fill="#e50914"/>
  <path d="m625.12,300.81c7.66,0,15.32,0,22.98,0-.01,14.84-.03,29.68-.04,44.52,9.78-14.87,19.54-29.7,29.3-44.52,7.66,0,15.32,0,22.99,0-9.12,12.91-18.25,25.81-27.38,38.73,9.27,22.25,18.55,44.49,27.86,66.79-8.03-.03-16.07-.05-24.1-.03-6.49-15.66-12.98-31.32-19.46-46.98-3.07,4.48-6.15,8.97-9.22,13.47-.01,11.22-.02,22.43-.03,33.65-7.68.07-15.37.15-23.05.26.06-35.3.12-70.59.17-105.89Z" fill="#e50914"/>
  <path d="m729.39,300.81c10.38,0,20.76,0,31.13,0,8.02,35.41,16.06,70.96,24.12,106.74-7.68-.19-15.37-.36-23.05-.51-1.41-7.06-2.82-14.11-4.24-21.16,0,.1,0,.2,0,.3-8.73-.13-17.45-.23-26.18-.32-1.39,6.89-2.78,13.77-4.16,20.65-7.13-.08-14.25-.13-21.38-.17,7.94-35.14,15.86-70.3,23.75-105.55Zm25.22,70.94c-3.45-17.52-6.9-35.01-10.35-52.48-.14,0-.28,0-.42,0-3.31,17.44-6.63,34.87-9.96,52.27,6.91.06,13.82.13,20.73.21Z" fill="#e50914"/>
  <path d="m795.41,300.83c11.35,0,22.71,0,34.06.02,11.84,0,20.49,2.05,25.94,6.17,5.45,4.12,8.2,10.47,8.24,19.02.01,2.24.02,4.48.03,6.72.05,11.37-4.93,18.46-14.96,21.26,0,.1,0,.21,0,.31,5.58,1.36,9.54,3.99,11.85,7.9,2.32,3.91,3.49,9.1,3.52,15.56.03,6.41.06,12.82.09,19.23.01,3.13.16,5.66.45,7.6.29,1.94.99,3.87,2.12,5.8-7.82-.35-15.64-.68-23.46-.98-.85-1.79-1.41-3.46-1.7-5.03-.29-1.56-.44-4.36-.45-8.38-.03-6.61-.05-13.23-.08-19.84-.02-4.96-1.12-8.45-3.29-10.46-2.17-2.01-5.91-3.07-11.21-3.18-2.65-.05-5.3-.11-7.95-.16.06,15.39.11,30.77.17,46.16-7.68-.25-15.36-.49-23.05-.7-.11-35.67-.22-71.34-.33-107.01Zm31.52,46.29c4.6.07,8.05-.75,10.34-2.47,2.29-1.72,3.43-4.65,3.42-8.78-.01-2.79-.02-5.58-.03-8.37-.02-3.93-.97-6.77-2.86-8.54-1.89-1.77-4.85-2.66-8.89-2.68-3.48-.02-6.97-.04-10.45-.06.04,10.26.07,20.51.11,30.77,2.79.04,5.58.08,8.37.12Z" fill="#e50914"/>
  <path d="m879.62,300.87c10.94,0,21.87.02,32.81.02,5.02,26.69,10.04,53.57,15.07,80.66.14,0,.28.01.42.02,4.73-26.68,9.46-53.56,14.18-80.65,10.94,0,21.87.02,32.81.03.23,38.59.46,77.18.69,115.78-7.25-.52-14.5-1.02-21.76-1.5-.17-28.85-.34-57.7-.5-86.54-.14,0-.28,0-.42,0-5.41,28.75-10.82,57.22-16.24,85.45-6.42-.4-12.84-.78-19.26-1.15-5.74-28.61-11.46-56.97-17.18-85.1-.14,0-.28,0-.42,0,.15,28.05.29,56.11.44,84.16-6.7-.35-13.4-.69-20.1-1.02-.18-36.72-.36-73.44-.54-110.16Z" fill="#e50914"/>
  <path d="m1009.79,300.99c10.38.01,20.76.02,31.13.04,8.18,40.33,16.37,81.34,24.55,123.11-7.66-.72-15.32-1.41-22.98-2.08-1.44-8.13-2.88-16.24-4.33-24.33,0,.12,0,.23,0,.35-8.71-.61-17.42-1.2-26.13-1.76-1.35,7.64-2.69,15.26-4.04,22.86-7.11-.56-14.22-1.11-21.33-1.64,7.71-38.27,15.42-77.09,23.12-116.55Zm25.56,80.55c-3.53-20.04-7.07-39.94-10.6-59.69-.14,0-.28,0-.42,0-3.22,19.64-6.45,39.15-9.67,58.53,6.9.38,13.79.76,20.69,1.16Z" fill="#e50914"/>
  <path d="m1075.82,301.07c7.66.01,15.32.02,22.98.03.1,17.75.2,35.5.3,53.25,9.65-17.32,19.3-35.05,28.95-53.21,7.66.01,15.32.02,22.98.04-9.05,16.13-18.08,31.88-27.12,47.29,9.4,27.57,18.8,55.78,28.18,84.69-7.99-.92-15.99-1.81-23.99-2.69-6.57-19.92-13.14-39.51-19.72-58.81-3.03,5.22-6.07,10.39-9.1,15.54.08,13.42.15,26.84.23,40.25-7.65-.78-15.31-1.54-22.97-2.28-.24-41.37-.49-82.75-.73-124.12Z" fill="#e50914"/>
  <path d="m1180.08,301.23c10.38.02,20.75.04,31.13.06,8.1,46.4,16.18,93.82,24.22,142.32-7.63-1.04-15.27-2.05-22.9-3.04-1.42-9.4-2.84-18.76-4.26-28.09,0,.13,0,.26,0,.4-8.68-.9-17.37-1.78-26.06-2.64-1.35,8.7-2.71,17.37-4.06,26.01-7.09-.86-14.17-1.7-21.26-2.53,7.71-43.26,15.44-87.4,23.19-132.49Zm25.41,92.58c-3.49-23.1-6.98-45.98-10.48-68.65-.14,0-.28,0-.42,0-3.25,22.51-6.5,44.81-9.74,66.92,6.88.57,13.76,1.15,20.64,1.75Z" fill="#e50914"/>
  <path d="m1246.1,301.35c11.35.02,22.7.04,34.06.07,11.84.02,20.48,2.86,25.91,8.65,5.43,5.79,8.15,14.75,8.15,26.75,0,3.14,0,6.29,0,9.43,0,15.97-5,25.73-15,29.14,0,.14,0,.29,0,.43,5.56,2.15,9.48,6.02,11.77,11.61,2.29,5.59,3.44,12.96,3.44,22.03,0,9,0,17.99,0,26.99,0,4.39.14,7.96.42,10.7.28,2.75.97,5.52,2.08,8.34-7.75-1.21-15.51-2.4-23.27-3.57-.83-2.56-1.39-4.93-1.67-7.12-.28-2.19-.42-6.07-.43-11.64,0-9.15-.02-18.31-.03-27.46,0-6.87-1.09-11.76-3.24-14.67-2.16-2.9-5.87-4.57-11.15-5.01-2.64-.22-5.28-.44-7.92-.66.04,20.99.07,41.99.11,62.98-7.62-1.1-15.25-2.18-22.88-3.23-.12-47.92-.24-95.84-.36-143.77Zm31.43,63.55c4.59.29,8.03-.69,10.32-2.97,2.29-2.28,3.44-6.29,3.43-12.01,0-3.86,0-7.72-.01-11.58,0-5.43-.95-9.4-2.83-11.87-1.88-2.47-4.84-3.75-8.88-3.84-3.48-.08-6.96-.16-10.44-.23.02,14,.05,27.99.07,41.99,2.78.17,5.56.35,8.34.53Z" fill="#e50914"/>
</svg>